<svg xmlns="http://www.w3.org/2000/svg" xmlns:xlink="http://www.w3.org/1999/xlink" width="487.035" height="438.967" viewBox="0 0 487.035 438.967">
  <defs>
    <linearGradient id="linear-gradient" x1="0.763" y1="0.257" x2="0.108" y2="0.643" gradientUnits="objectBoundingBox">
      <stop offset="0" stop-color="#297f39"/>
      <stop offset="1" stop-color="#1f582b"/>
    </linearGradient>
    <linearGradient id="linear-gradient-2" x1="1.09" y1="0.611" x2="0.042" y2="0.542" gradientUnits="objectBoundingBox">
      <stop offset="0" stop-color="#205b2c"/>
      <stop offset="1" stop-color="#1b5027"/>
    </linearGradient>
    <linearGradient id="linear-gradient-3" x1="0.5" x2="-0.277" y2="0.629" gradientUnits="objectBoundingBox">
      <stop offset="0" stop-color="#297f39"/>
      <stop offset="1" stop-color="#205b2c"/>
    </linearGradient>
  </defs>
  <g id="Group_264" data-name="Group 264" transform="translate(-1108 -206)">
    <g id="Group_137" data-name="Group 137" transform="translate(815.009 51.032)">
      <ellipse id="Ellipse_148" data-name="Ellipse 148" cx="19.018" cy="10.892" rx="19.018" ry="10.892" transform="translate(741.991 316.806)" fill="#909091" opacity="0.47"/>
      <path id="Path_282" data-name="Path 282" d="M771.834,266.827c1.353,4.159,2.747,8.019,4.1,12.178a18.611,18.611,0,0,1-1.808,5.712l-3.529-6.205C771.023,274.517,771.409,270.821,771.834,266.827Z" fill="#b1b7b2"/>
      <path id="Path_283" data-name="Path 283" d="M766.652,322.489c2.313,2.681,2.223,3.366,2.13,3.677a2.512,2.512,0,0,1-2.619,1.508c-1.309-.215-1.092-1.66-3.386-3.789-.979-.908-1.849-1.417-1.763-2.165.053-.459.417-.58.785-1.466.383-.921.187-1.267.437-1.423C763.056,318.318,765.863,321.573,766.652,322.489Z" fill="#fff"/>
      <path id="Path_284" data-name="Path 284" d="M756.408,324.661c-.447,3.319-.326,3.728-.848,4.159a2.534,2.534,0,0,1-3.063-.016c-.926-.875-.4-2.622.256-4.818.164-.544,1.442-4.807,2.623-4.674.768.087,1.141,1.995,1.2,2.286A8.616,8.616,0,0,1,756.408,324.661Z" fill="#fff"/>
      <path id="Path_285" data-name="Path 285" d="M771.645,268.742l-1.085,9.7,1,1.77Q771.6,274.475,771.645,268.742Z" fill="#537859"/>
      <path id="Path_286" data-name="Path 286" d="M767.838,290.768a16,16,0,0,0-5.278-1.134,16.41,16.41,0,0,0-8.562,2.06c-.354,4.38-.595,9.037-.67,13.944-.085,5.456.045,10.614.32,15.437a1.7,1.7,0,0,0,1.745,1.344,1.685,1.685,0,0,0,1.449-1.205c1.2-9.867,2.394-17.03,2.91-18.376a4.628,4.628,0,0,1,1.349-1.89c.114-.086.718-.543.978-.5.73.115.985,4.523-.323,19.976,1.035,1.544,2.468,2.08,3.2,1.648a1.535,1.535,0,0,0,.638-1.219,147.916,147.916,0,0,0,2.44-15.772c.478-4.786.69-9.277.726-13.416Z" fill="#fad0cc"/>
      <path id="Path_342" data-name="Path 342" d="M767.838,290.768a16,16,0,0,0-5.278-1.134,16.41,16.41,0,0,0-8.562,2.06c-.354,4.38-2.564,12.081-2.639,16.988,2.9,2.945,8.185,2.46,8.393,1.785.491-3.659-.516-6.283,0-7.629.47-1.225,3.209-1.966,1.067,7.317,1.035,1.544,8.97-.491,8.97-.491s-1.063-13.862-1.027-18Z" fill="#585666"/>
      <path id="Path_287" data-name="Path 287" d="M768.763,291.942a17.28,17.28,0,0,1-3.747,1.24A18.755,18.755,0,0,1,754,291.973a44.576,44.576,0,0,0-2.743-23.7,15.331,15.331,0,0,1,7.635-4.433c6.806-1.566,12.17,2.353,12.986,2.97-.333,4.882-.84,10.025-1.572,15.395Q769.617,287.247,768.763,291.942Z" fill="#b1b7b2"/>
      <path id="Path_288" data-name="Path 288" d="M769.236,252.665c1.007,1.432.811,3,.419,6.144-.329,2.636-.566,4.528-2.13,5.691a5.259,5.259,0,0,1-3.8.825c-3.092-.449-5.19-3.488-5.764-6.132a7.732,7.732,0,0,1,.838-5.586,6.543,6.543,0,0,1,3.212-2.827C764.482,249.833,767.741,250.539,769.236,252.665Z" fill="#ffd3ce"/>
      <path id="Path_289" data-name="Path 289" d="M755.783,270.342,753.4,274.52q.222,1.206.442,2.414L754.9,274.8a9.845,9.845,0,0,0,.887-4.457Z" fill="#00407e"/>
      <path id="Path_290" data-name="Path 290" d="M755.2,287.464c-.26.346-.623.681-.883,1.027l.078,1.313c.218,0,.41.026,11.469,1.922l.234-.859C764.2,289.757,757.089,288.573,755.2,287.464Z" transform="translate(0.161 -4.852)" fill="#537859"/>
      <path id="Path_340" data-name="Path 340" d="M755.2,287.464c-.26.346-.623.681-.883,1.027l.078,1.313c.218,0,.41.026,11.469,1.922l.234-.859C764.2,289.757,757.089,288.573,755.2,287.464Z" transform="translate(768.914 -538.4) rotate(70)" fill="#537859"/>
      <path id="Path_294" data-name="Path 294" d="M787.226,273.51c-.253-.024-.49.291-1.075,1.4a8.3,8.3,0,0,0-.726,1.565,3.3,3.3,0,0,0-.064,1.51,1.811,1.811,0,0,0,.479,1.107c1.02.7,4.436-1.744,4.785-3.876a2.126,2.126,0,0,0-.823-2.283.5.5,0,0,0-.38-.186c-.6.04-.73,1.753-1.623,2.066-.071.025-.2.067-.277.007-.235-.171.208-.938-.1-1.225A.354.354,0,0,0,787.226,273.51Z" transform="translate(290.121 959.031) rotate(-74)" fill="#ffd3ce"/>
      <path id="Path_291" data-name="Path 291" d="M750.81,267.9c1.7-.477,3.8.043,4.589,1.147a2.9,2.9,0,0,1,.513,1.6l-2.369,4.746-2.514,6.449,6.411,4.972s-2.26,1.48-1.931,2.836l-9.412-6.658Z" transform="translate(-42.465 342.778) rotate(-25)" fill="#b1b7b2"/>
      <path id="Path_292" data-name="Path 292" d="M758.74,284.509l10.413,2.67-3.314,6.671-10.352-2.73Z" transform="translate(-42.465 342.778) rotate(-25)" fill="#161616"/>
      <path id="Path_293" data-name="Path 293" d="M756.356,287.1a3.577,3.577,0,0,1,1.439-.562l-.233.534a4.246,4.246,0,0,0,.971.213c1.347.131,2.164-.461,2.416-.185.132.145.125.544-.674,1.756a3.14,3.14,0,0,1-.861.733,4.348,4.348,0,0,1-3.859-.146S754.723,288.488,756.356,287.1Z" transform="translate(-42.465 342.778) rotate(-25)" fill="#ffd3ce"/>
      <path id="Path_341" data-name="Path 341" d="M770.429,258.277s-6.736,3.088-10.2-2.61c-.48,3.227-1.883,5.592-2.3,4.463-2.094-5.493.48-8.033.48-8.033s2.849-2.436,5.981-2.436a6.3,6.3,0,0,1,4.634,1.716,4.65,4.65,0,0,1,1.407,2.575A16.219,16.219,0,0,1,770.429,258.277Z" fill="#501212"/>
    </g>
    <g id="Group_134" data-name="Group 134" transform="translate(1346.665 396.68)">
      <ellipse id="Ellipse_152" data-name="Ellipse 152" cx="18.577" cy="52.082" rx="18.577" ry="52.082" transform="translate(1.452 86.64) rotate(-92.24)" fill="#909091" opacity="0.47"/>
      <path id="Path_309" data-name="Path 309" d="M442.909,418.026a23.124,23.124,0,0,1,10.262,3.42c10.949,6.489,13.858,18.95,14.582,22.055a34.863,34.863,0,0,1,.27,16.113c-.626,2.759-2.1,9.267-7.111,14.223-7.527,7.449-18.43,6.841-26.375,6.4-7.97-.444-25.134-1.4-30.426-12.97-2.535-5.542-1.362-11.367-.36-14.673a21.443,21.443,0,0,1,4.591-8.822,21.684,21.684,0,0,1,10.8-6.661,10.36,10.36,0,0,0,2.741-1.331c5.324-3.66,3.227-9.93,7.48-14.311C433.414,417.3,440.312,417.827,442.909,418.026Z" transform="translate(-385.786 -408.718)" fill="#f9c404"/>
      <path id="Path_310" data-name="Path 310" d="M451.665,423.043a33.107,33.107,0,0,1,8.748,8.287,34.741,34.741,0,0,1,5.834,13.767,35.547,35.547,0,0,1,.27,16.113c-.814,3.587-2.1,9.405-7.111,14.223-5.693,5.47-12.717,6.33-15.978,6.729-2.222.271-4.977.075-10.4-.33-13.634-1.019-17.017-2.063-18.9-2.843a22.532,22.532,0,0,1-8.268-5.46,20.6,20.6,0,0,1-3.253-4.667,58.473,58.473,0,0,0,32.5,2.79c6.914-1.447,16.143-3.38,21.334-10.8C463.019,451.438,460.928,436.31,451.665,423.043Z" transform="translate(-384.28 -410.314)" fill="#d3a30b"/>
      <path id="Path_311" data-name="Path 311" d="M486.416,501.563s.095-2.517-.315-2.97-4.321-.9-5.356,0v.855a2.355,2.355,0,0,1-.168,1.373c-.417.868-1.254.951-2.836,1.823-1.349.743-2.394,1.319-2.667,2.329a2.714,2.714,0,0,0,.371,1.992,6.712,6.712,0,0,0,2.4.979c.441.086,2.977.576,4.625-.844,1.069-.921.639-1.679,1.721-2.329,1.162-.7,2.525-.346,2.768-1.046a3.278,3.278,0,0,0,.045-.99h0Z" transform="translate(-453.934 -433.563)" fill="#2f2530"/>
      <path id="Path_312" data-name="Path 312" d="M474.656,508.219s.106-2.81-.352-3.315-4.822-1-5.977,0v.954s-.653,2.009-1.306,2.361-4.8,0-5.463,1.356a4.3,4.3,0,0,0-.314,2.712s.754,1.959,3.868,1.658a22.1,22.1,0,0,0,7.434-1.758c2.662-1.1,2.763-2.662,2.763-2.662Z" transform="translate(-432.662 -435.5)" fill="#2f2530"/>
      <ellipse id="Ellipse_153" data-name="Ellipse 153" cx="12.142" cy="4.636" rx="12.142" ry="4.636" transform="translate(37.791 41.361)" fill="#d3a30b"/>
      <path id="Path_313" data-name="Path 313" d="M462.656,423.907l-1.248,19.028L455.5,448.1l2.633,3.342,7.257-6.852,1.17-13.834Z" transform="translate(-420.014 -410.582)" fill="#ffd3ce"/>
      <path id="Path_314" data-name="Path 314" d="M459.1,431.671q-.278,1.908-.556,3.814s.473,1.283,4.153,1.958q-.6-13.571-1.676-13.609Q460.195,423.8,459.1,431.671Z" transform="translate(-418.243 -410.559)" fill="#5baf7d"/>
      <path id="Path_315" data-name="Path 315" d="M458.992,439.658l-1.3-.382c-.11-6.549-.073-8.077-.01-8.079a16.546,16.546,0,0,0,.288,1.665,7.508,7.508,0,0,0,2.16,3.443Z" transform="translate(-415.045 -412.84)" fill="#3e6d51"/>
      <path id="Path_316" data-name="Path 316" d="M469.829,466.989A80.7,80.7,0,0,1,453.22,473.4q-.167,2.69-.342,5.392-.414,6.352-.873,12.634a2.656,2.656,0,0,1-2.161.945,2.576,2.576,0,0,1-1.755-.945q-1.048-10.255-2.1-20.51l6.012-4.74-8.777,3.578a65.472,65.472,0,0,1-.54,17.215,1.97,1.97,0,0,1-1.823,1.081,2.075,2.075,0,0,1-1.62-1.013q-1.25-9.486-2.5-18.971l20.119-10.982a56.98,56.98,0,0,1,6.527.765c3.981.7,5.99,1.077,6.931,2.475C471.855,462.6,470.279,466.067,469.829,466.989Z" transform="translate(-411.49 -420.863)" fill="#5282d8"/>
      <path id="Path_317" data-name="Path 317" d="M465.336,472.621l11.454-2.993v-.69l-15.528-4.688q-13.817.83-13.977,2.783a.824.824,0,0,0,.25.6Z" transform="translate(-424.573 -423.083)" fill="#9b9b9b"/>
      <path id="Path_318" data-name="Path 318" d="M452.42,428.825a34.156,34.156,0,0,0-19.478-5,94.8,94.8,0,0,0,2.734,23.8,8.044,8.044,0,0,0,1.418,1.823c4.024,3.856,10.823,2.1,11.814,1.823a24.792,24.792,0,0,1,3.511-22.444Z" transform="translate(-390.301 -410.544)" fill="#5baf7d"/>
      <ellipse id="Ellipse_154" data-name="Ellipse 154" cx="7.764" cy="5.536" rx="7.764" ry="5.536" transform="translate(45.317 18.945) rotate(-118.902)" fill="#ffd3ce"/>
      <path id="Path_319" data-name="Path 319" d="M462.5,471.622l11.455-2.993-15.528-5.379-11.147,4.241Z" transform="translate(-421.74 -422.773)" fill="#777"/>
      <path id="Path_320" data-name="Path 320" d="M486.227,467.085l-18.162-4.928q-2.092-6.773-4.186-13.547l19.354,4.726Q484.73,460.21,486.227,467.085Z" transform="translate(-445.464 -418.236)" fill="#9b9b9b"/>
      <path id="Path_321" data-name="Path 321" d="M439.327,450.091l-1.081.337q-.039-6.008-.079-12.017c.026-1.676.538-2.8,1.08-2.847.609-.053,1.2,1.248,1.261,1.4Z" transform="translate(-382.001 -414.193)" fill="#3e6d51"/>
      <path id="Path_322" data-name="Path 322" d="M454.247,431.086a5.909,5.909,0,0,0-4.455,1.853,5.351,5.351,0,0,0-1.182,2.363,41.679,41.679,0,0,1,.068,13.131,26.387,26.387,0,0,1-12.659,6.177,7.869,7.869,0,0,0-1.61.609c-.255.13-2.6,1.326-2.41,2.336.075.394.509.613.813.768a4.833,4.833,0,0,0,4.726-.743,5.659,5.659,0,0,0,1.6-1.8,26.747,26.747,0,0,0,12.48-2.451,37.183,37.183,0,0,0,2.633-22.242Z" transform="translate(-392.128 -412.806)" fill="#ffd3ce"/>
      <path id="Path_323" data-name="Path 323" d="M436.315,431.018l1.643,9.021a7.2,7.2,0,0,1-6.977,2.688l-.428-7.516S431.342,429.908,436.315,431.018Z" transform="translate(-374.196 -412.738)" fill="#5baf7d"/>
      <ellipse id="Ellipse_155" data-name="Ellipse 155" cx="1.744" cy="1.209" rx="1.744" ry="1.209" transform="translate(28.711 41.692) rotate(-113.443)" fill="#eaeaea"/>
      <path id="Path_324" data-name="Path 324" d="M456.357,411.985a7.824,7.824,0,0,1,2.206,1.733,4.773,4.773,0,0,0,1.058,1.035,3.808,3.808,0,0,0,1.588.579l-.091-.457a5.315,5.315,0,0,0,.438-1.787,5.452,5.452,0,0,0-.405-2.408,6.185,6.185,0,0,0-3.375-3.489,6.892,6.892,0,0,0-2.363-.315,10.353,10.353,0,0,0-2.872.295,8.343,8.343,0,0,0-4.622,3.036c-1.1,1.5-1.768,3.57-1.26,4.951a1.691,1.691,0,0,0,.675.945c.583.343,1.1-.023,1.8.2a2.219,2.219,0,0,1,1.23,1.146l-.8-1.708a10.259,10.259,0,0,0,1.237-.248A11.566,11.566,0,0,0,456.357,411.985Z" transform="translate(-408.798 -405.303)" fill="#684c07"/>
    </g>
    <g id="Group_136" data-name="Group 136" transform="translate(1228.665 397.68)">
      <ellipse id="Ellipse_152-2" data-name="Ellipse 152" cx="18.577" cy="52.082" rx="18.577" ry="52.082" transform="translate(0 82.568) rotate(-87.76)" fill="#909091" opacity="0.47"/>
      <path id="Path_309-2" data-name="Path 309" d="M428.527,418.026a23.124,23.124,0,0,0-10.262,3.42c-10.949,6.489-13.858,18.95-14.582,22.055a34.863,34.863,0,0,0-.27,16.113c.626,2.759,2.1,9.267,7.111,14.223,7.527,7.449,18.43,6.841,26.375,6.4,7.97-.444,25.134-1.4,30.426-12.97,2.535-5.542,1.362-11.367.36-14.673a21.443,21.443,0,0,0-4.591-8.822,21.684,21.684,0,0,0-10.8-6.661,10.36,10.36,0,0,1-2.741-1.331c-5.324-3.66-3.227-9.93-7.48-14.311C438.022,417.3,431.124,417.827,428.527,418.026Z" transform="translate(-380.114 -408.718)" fill="#7bccd5"/>
      <path id="Path_310-2" data-name="Path 310" d="M418.271,423.043a33.107,33.107,0,0,0-8.748,8.287,34.741,34.741,0,0,0-5.834,13.767,35.547,35.547,0,0,0-.27,16.113c.814,3.587,2.1,9.405,7.111,14.223,5.693,5.47,12.717,6.33,15.978,6.729,2.222.271,4.977.075,10.4-.33,13.634-1.019,17.017-2.063,18.9-2.843a22.532,22.532,0,0,0,8.268-5.46,20.6,20.6,0,0,0,3.253-4.667,58.473,58.473,0,0,1-32.5,2.79c-6.914-1.447-16.143-3.38-21.334-10.8C406.917,451.438,409.008,436.31,418.271,423.043Z" transform="translate(-380.119 -410.314)" fill="#6aabb2"/>
      <path id="Path_311-2" data-name="Path 311" d="M475.609,501.563s-.095-2.517.315-2.97,4.321-.9,5.356,0v.855a2.355,2.355,0,0,0,.168,1.373c.417.868,1.254.951,2.836,1.823,1.349.743,2.394,1.319,2.667,2.329a2.714,2.714,0,0,1-.371,1.992,6.712,6.712,0,0,1-2.4.979c-.441.086-2.977.576-4.625-.844-1.069-.921-.639-1.679-1.721-2.329-1.162-.7-2.525-.346-2.768-1.046a3.278,3.278,0,0,1-.045-.99h0Z" transform="translate(-402.553 -433.563)" fill="#2f2530"/>
      <path id="Path_312-2" data-name="Path 312" d="M461.8,508.219s-.106-2.81.352-3.315,4.822-1,5.977,0v.954s.653,2.009,1.306,2.361,4.8,0,5.463,1.356a4.3,4.3,0,0,1,.314,2.712s-.754,1.959-3.868,1.658a22.1,22.1,0,0,1-7.434-1.758c-2.662-1.1-2.763-2.662-2.763-2.662Z" transform="translate(-398.26 -435.5)" fill="#2f2530"/>
      <ellipse id="Ellipse_153-2" data-name="Ellipse 153" cx="12.142" cy="4.636" rx="12.142" ry="4.636" transform="translate(43.463 41.361)" fill="#6aabb2"/>
      <path id="Path_313-2" data-name="Path 313" d="M458.872,423.907l1.078,16.433,5.1,4.461-2.274,2.886-6.268-5.918L455.5,429.821Z" transform="translate(-396.395 -405.347)" fill="#ffd3ce"/>
      <path id="Path_314-2" data-name="Path 314" d="M461.645,430.6q.24,1.648.48,3.294s-.408,1.108-3.586,1.691q.518-11.721,1.447-11.753Q460.7,423.809,461.645,430.6Z" transform="translate(-397.623 -405.317)" fill="#e49ee6"/>
      <path id="Path_315-2" data-name="Path 315" d="M458.588,438.484c.375-.11,1.281-.388,1.656-.5-.707-2.417-1.36-6.931-1.414-6.933a14.206,14.206,0,0,0-1.223,2.554c-.37,1.344.693,1.327,0,1.981Z" transform="translate(-397.239 -408.272)" fill="#cb6dce"/>
      <path id="Path_316-2" data-name="Path 316" d="M437.823,466.365a75.517,75.517,0,0,0,15.542,6q.156,2.518.32,5.046.387,5.944.817,11.823c.066.082,4.972-12.8,5.626-19.193l-5.626-4.435,8.213,3.349a61.269,61.269,0,0,0,.505,16.11,1.843,1.843,0,0,0,1.706,1.011,1.942,1.942,0,0,0,1.516-.948q1.169-8.876,2.338-17.753c-6.276-3.425-14.4-6.684-20.675-10.109a26.994,26.994,0,0,0-4.259.549c-3.725.654-5.605,1.008-6.486,2.317C435.926,462.26,437.4,465.5,437.823,466.365Z" transform="translate(-389.599 -419.736)" fill="#ffd3ce"/>
      <path id="Path_339" data-name="Path 339" d="M437.823,466.365a75.517,75.517,0,0,0,15.542,6q.156,2.518.32,5.046s4.261,1.264,4.958-.419c.639-1.169,1.291-5.058,1.485-6.951l-5.626-4.435,8.213,3.349a33.437,33.437,0,0,0-.5,6.71,9.7,9.7,0,0,0,3.052.677,5.476,5.476,0,0,0,2.529-.677c.78-5.918.2-2.372.983-8.289-6.276-3.425-14.4-6.684-20.675-10.109a26.994,26.994,0,0,0-4.259.549c-3.725.654-5.605,1.008-6.486,2.317C435.926,462.26,435.267,465.3,437.823,466.365Z" transform="translate(-389.599 -419.736)" fill="#5282d8"/>
      <path id="Path_317-2" data-name="Path 317" d="M458.737,472.621l-11.454-2.993v-.69l15.528-4.688q13.817.83,13.977,2.783a.824.824,0,0,1-.25.6Z" transform="translate(-393.963 -423.083)" fill="#9b9b9b"/>
      <path id="Path_318-2" data-name="Path 318" d="M432.935,428.138a29.5,29.5,0,0,1,16.821-4.318c.021,1.686-.921,4.051-.945,6.466a10.913,10.913,0,0,0,1.7,5.662c-.192,1.517-2.154,2.216-2.154,2.216s-.59,4.678-.966,6.209a6.949,6.949,0,0,1-1.225,1.574c-3.475,3.331-9.347,1.809-10.2,1.575a21.411,21.411,0,0,0-3.032-19.384Z" transform="translate(-387.279 -405.298)" fill="#e49ee6"/>
      <ellipse id="Ellipse_154-2" data-name="Ellipse 154" cx="6.705" cy="4.781" rx="6.705" ry="4.781" transform="translate(51.795 18.792) rotate(-61.098)" fill="#ffd3ce"/>
      <path id="Path_319-2" data-name="Path 319" d="M458.737,471.622l-11.455-2.993,15.528-5.379,11.147,4.241Z" transform="translate(-393.963 -422.773)" fill="#777"/>
      <path id="Path_320-2" data-name="Path 320" d="M463.88,467.085l18.162-4.928q2.092-6.773,4.186-13.547l-19.354,4.726Q465.377,460.21,463.88,467.085Z" transform="translate(-399.106 -418.236)" fill="#9b9b9b"/>
      <path id="Path_321-2" data-name="Path 321" d="M439.188,448.11l.933.291.068-10.378c-.022-1.448-.464-2.417-.933-2.459-.526-.046-1.033,1.078-1.089,1.205Z" transform="translate(-389.393 -410.055)" fill="#cb6dce"/>
      <path id="Path_322-2" data-name="Path 322" d="M432.552,431.086a5.1,5.1,0,0,1,3.848,1.6,4.621,4.621,0,0,1,1.02,2.041,36,36,0,0,0-.058,11.34,22.788,22.788,0,0,0,10.933,5.335,6.8,6.8,0,0,1,1.39.526c.22.112,2.248,1.145,2.081,2.018-.065.34-.439.53-.7.663a4.174,4.174,0,0,1-4.081-.641,4.886,4.886,0,0,1-1.379-1.557,23.1,23.1,0,0,1-10.778-2.116,32.113,32.113,0,0,1-2.274-19.209Z" transform="translate(-386.896 -408.246)" fill="#ffd3ce"/>
      <path id="Path_323-2" data-name="Path 323" d="M431.973,431l-1.419,7.791a6.22,6.22,0,0,0,6.025,2.321l.37-6.491S436.268,430.039,431.973,431Z" transform="translate(-386.317 -408.158)" fill="#e49ee6"/>
      <ellipse id="Ellipse_155-2" data-name="Ellipse 155" cx="1.744" cy="1.209" rx="1.744" ry="1.209" transform="translate(74.609 40.73) rotate(-66.557)" fill="#eaeaea"/>
      <path id="Path_324-2" data-name="Path 324" d="M449.8,413.1c-.952.52-1.785,10.666-1.785,10.666a13.491,13.491,0,0,1-2.856-3.927,14.281,14.281,0,0,1-.665-4.669c.37-6.206,3.75-8.16,7.1-8.45a6.871,6.871,0,0,1,2.112.161c-.165-.037,6.338,1.74,4.12,7.549a17.97,17.97,0,0,0-.317,3.908,6.955,6.955,0,0,0,1.716,3.486s-1.188,2.245-5.783-2.8l1.347-1.32,1.03-1.426.66-1.426a1.107,1.107,0,0,1-1.69.713S450.739,414.128,449.8,413.1Z" transform="translate(-392.753 -398.465)" fill="#302f2d"/>
    </g>
    <g id="Group_130" data-name="Group 130" transform="translate(576.296 82.033)">
      <path id="Path_266" data-name="Path 266" d="M925.525,299.191c-.8-1.519-1.059-4.6-1.606-6.2-1.8-5.257-3.337-10.594-4.941-15.912-1.533-5.083-3.169-10.137-4.736-15.211-1.519-4.919-3.173-9.8-4.47-14.781l21.714,6.046.271,1.022C929.658,268.859,927.624,284.487,925.525,299.191Z" fill="#135b95"/>
      <path id="Path_271" data-name="Path 271" d="M931.6,253.623q20.191,65.182,40.387,130.37c-.044.323.342.943.262,1.53-3.272,23.825-9.876,72.621-9.876,72.621l-.635.471s-7.8-24.258-11.695-36.387q2.106-12.969,4.211-25.937a17.572,17.572,0,0,0-1.2-7.955q-13.952-45.273-27.9-90.546Q928.382,275.708,931.6,253.623Z" fill="#0d4b7c"/>
      <path id="Path_256" data-name="Path 256" d="M860.241,310.111,754.2,278.815l10.368-74.627L870.9,235.653l.858,2.342c-3.512,24.542-7.753,48.32-11.265,72.862Z" fill="#135b95"/>
      <path id="Path_257" data-name="Path 257" d="M961.738,458.615l-.092-.294q5.117-37.091,10.232-74.179l.11-.149a150.3,150.3,0,0,0,12.621-9.6q2.312-1.959,4.434-3.913l9.276-10.494q-5.808,39.243-11.618,78.485a7.4,7.4,0,0,1-1.049,2.509,9,9,0,0,1-2.084,2.108c-3.589,2.923-2.932,2.459-3.51,2.88C977.88,447.552,971.056,452.309,961.738,458.615Z" fill="#0f5892"/>
      <path id="Path_258" data-name="Path 258" d="M663.12,322.1q-9.1-28.344-18.2-56.69L817.819,149.061l.348-.1-2.634,21.022q-3.366,2.195-6.731,4.39l-2.22,15.566c-3.447-.951-6.151-1.694-8.791-2.425-2.212-.612-3.953-1.1-6.123-.656a9.8,9.8,0,0,0-3.642,1.6c-3.6,2.446-12,8.132-23.1,15.785Q761.1,231.12,757.279,258Z" fill="#c35d03"/>
      <path id="Path_259" data-name="Path 259" d="M808.562,174.024,953.7,214.689l.019.545q-1.057,7.761-2.113,15.524L805.767,189.311Q807.165,181.669,808.562,174.024Z" fill="#1567a5"/>
      <path id="Path_260" data-name="Path 260" d="M754.147,155.179,635.793,235.217q-2.657-8.511-5.315-17.021l126.7-85.8Z" fill="#c35d03"/>
      <path id="Path_261" data-name="Path 261" d="M594.9,207.728l39.882,127.924,3.673,4.829,33.056,7.977q.231.739.461,1.477l-1.908,13.8-90.213-25.4q-4.223,30.351-8.444,60.7a12.329,12.329,0,0,1-7.33-4.57q-10.733-34.957-21.466-69.916a25.178,25.178,0,0,1,.035-7.675l9.789-70.737c11.662,39.394,20.221,68.055,21.275,71.527a8.539,8.539,0,0,0,1.934,3.468,9.245,9.245,0,0,0,4.693,2.528c3.813.922,15.927,4.365,32.5,8.985q-12.23-39-24.46-78Z" fill="#a16303"/>
      <path id="Path_262" data-name="Path 262" d="M722.019,527.3c-39.374-11.213-80.817-23.142-120.19-34.356a18.026,18.026,0,0,1-5.476-3.657,19.569,19.569,0,0,1-4.687-7.847c-3.129-8.671-5.51-16.35-6.81-20.675q1-7.452,2-14.9a16.2,16.2,0,0,1-8.7-5.43l-8.676-28.079,10.293-74.505q.423.9.845,1.8c2.829,12.012,5.656,20.848,7.262,24.093A11.34,11.34,0,0,0,591.25,368a10.427,10.427,0,0,0,3.33,1.646c3.4,1.009,78.839,22.608,182.091,52.118L759.335,432.98,596.986,387.029l-1.4-.426c.066.2.247.751.475,1.447,2.307,7.051,4.292,13.508,7.041,20.091a16.458,16.458,0,0,0,1.015,2.115,16.669,16.669,0,0,0,6.183,5.99l3.025,1.45L730.008,451.4c-.1.752.578,1.321.448,2.327C727.353,477.828,725.272,502.993,722.019,527.3Z" fill="#1b5027"/>
      <path id="Path_263" data-name="Path 263" d="M818.167,148.962,645.747,265.73q-4.855-15.534-9.71-31.07c78.372-53.042,135.818-91.773,139.3-93.9a13.8,13.8,0,0,1,4.311-1.656,12.686,12.686,0,0,1,5.766.418C789.719,140.756,801.852,144.165,818.167,148.962Z" fill="#f99904"/>
      <path id="Path_264" data-name="Path 264" d="M916.746,490q-5.3-16.122-10.6-32.244,2.1-16.066,4.2-32.132-.04-2.043-.081-4.085c-4.592-13.788-5.869-18.406-6.111-19.914-.261-1.625-1.17-3.092-1.5-4.7-.1-.479-.244-.73-.448-.81-.369-.146-.842.237-.989.353-.859.678-3.942,2.7-8.37,5.543l3.093-26.732-7.778-25.729-14.038,9.783q-6.944-24.607-13.889-49.215,5.329-37.229,10.658-74.458,28.121,89.982,56.242,179.965c-.081.576.12,1.16,0,2.027-3.216,23.176-6.418,47.467-9.733,71.19C917.34,489.321,916.857,489.2,916.746,490Z" fill="#0d4b7c"/>
      <path id="Path_265" data-name="Path 265" d="M931.607,253.628,969.354,264.8c15.915,50.56,27.254,86.576,28.4,89.951a11.74,11.74,0,0,1,.653,3.662,12.481,12.481,0,0,1-1.21,5.453,13.688,13.688,0,0,1-1.652,2.664,20.249,20.249,0,0,1-5.192,4.78l-18.36,12.683Q951.8,318.81,931.607,253.628Z" fill="#1999e0"/>
      <path id="Path_267" data-name="Path 267" d="M613.328,333.2c-17.632-4.668-30.5-8.279-33.955-9.3a8.889,8.889,0,0,1-4.366-2.6,8.326,8.326,0,0,1-1.756-3.486c-.895-3.495-9.08-30.708-20.482-68.549a11.911,11.911,0,0,1-.3-1.856,13.9,13.9,0,0,1,.024-2.2c.457-4.649,3.64-10.08,3.64-10.08a37.67,37.67,0,0,1,8.674-10.211,40.376,40.376,0,0,1,7.1-4.457A46.364,46.364,0,0,1,577,218.245Q595.164,275.719,613.328,333.2Z" fill="#f9c404"/>
      <path id="Path_268" data-name="Path 268" d="M764.564,204.188c2.327-2.274,5.229-3.741,7.873-5.566,5.518-3.807,11.1-7.523,16.662-11.266a8.914,8.914,0,0,1,4.453-1.192,10.993,10.993,0,0,1,2.636.3c4.025,1.021,144.863,40.91,153.643,43.4a17.406,17.406,0,0,1,4.81,1.8A18.8,18.8,0,0,1,961,237.7a21.718,21.718,0,0,1,2.8,6.444c2.53,8.826,4.577,16.81,5.549,20.659Z" fill="#28b8f4"/>
      <path id="Path_255" data-name="Path 255" d="M776.255,459.37l-3.179,2.233a11.214,11.214,0,0,1-6.6,1.027,10.862,10.862,0,0,1-1.378-.3q-4.921,37.341-9.842,74.681a10.709,10.709,0,0,0,5.923-.1,10.124,10.124,0,0,0,2.125-.957h0l23.569-15.608q3.435-25.028,6.872-50.054l99.367-66.946,3.5-26.988Q836.513,417.871,776.255,459.37Z" fill="url(#linear-gradient)"/>
      <path id="Path_269" data-name="Path 269" d="M808.562,174.024c12.147-8.392,21.041-14.512,23.664-16.416a11.1,11.1,0,0,1,3.28-1.68c.683-.214,1.206-.331,1.342-.358a11.749,11.749,0,0,1,3.779-.007c2.007.348,39.851,11.263,91.53,26.426a34.5,34.5,0,0,1,7.8,5.2c.1.086.739.664,1.473,1.381a42.026,42.026,0,0,1,9.841,14.714,35.874,35.874,0,0,1,2.394,10.678c.034.531.051.972.059,1.275Z" fill="#28b8f4"/>
      <path id="Path_270" data-name="Path 270" d="M721.231,527.069c1.134-8.056,8.72-75.216,8.72-75.216l.18-.131,35.281,10.305a9.367,9.367,0,0,0,4.587-.032l-9.654,75.141a10.965,10.965,0,0,1-4.878-.06C743.461,533.532,733.237,530.613,721.231,527.069Z" fill="url(#linear-gradient-2)"/>
      <path id="Path_272" data-name="Path 272" d="M945.117,468.263a7.064,7.064,0,0,1-1.451,3.654,6.248,6.248,0,0,1-1.589,1.385c-1.935,1.207-11.763,7.712-25.331,16.7q5.09-37.217,10.18-74.434c13.413-9.406,22.957-16.03,24.756-17.058a6.363,6.363,0,0,0,1.908-1.614,6.583,6.583,0,0,0,1.217-2.593C949.423,435.6,945.446,465.655,945.117,468.263Z" fill="#0f5892"/>
      <path id="Path_273" data-name="Path 273" d="M908.589,427.7l-66.962,44.811a35.189,35.189,0,0,1-9.721,3.239c-1.823.273-3.82.493-5.971.614-1.872.1-3.635.121-5.27.08-1.278-.056-2.945-.161-4.888-.374a74.569,74.569,0,0,1-9.761-1.733l-12.7-4.491q-5.025,37.044-10.048,74.087c.469.346,1.163.834,2.037,1.362,3.791,2.29,7.217,3.053,11.536,3.977.665.143,3.518.743,7.356,1.168,2.947.326,5.207.386,5.934.432a47.518,47.518,0,0,0,11.117-.539,33.421,33.421,0,0,0,10.21-2.975s.632-.337,1.276-.729c4.6-2.8,41.332-27.769,66.232-44.728l1.062-1.4q5.549-38.118,11.1-76.236Z" fill="url(#linear-gradient-3)"/>
      <path id="Path_274" data-name="Path 274" d="M579.776,337.848,806.533,402.5l-29.446,19.435c-101.407-28.715-175.182-49.673-179.8-50.87a16.846,16.846,0,0,1-7.582-4.014,17.78,17.78,0,0,1-1.894-2.171C583.845,359.445,579.955,338.811,579.776,337.848Z" fill="#36a74c"/>
      <path id="Path_275" data-name="Path 275" d="M759.4,432.713l-29.45,19.14c-60.009-16.386-103.584-29-112.6-31.856-2.979-.942-8.982-3.131-12.972-8.6a31.784,31.784,0,0,1-2.86-5.909,92.765,92.765,0,0,1-4.969-14.164,34.427,34.427,0,0,0-1.247-4.289c-.131-.315-.188-.557-.085-.685.155-.19.579-.08.727-.041C596.96,386.576,697.145,415.029,759.4,432.713Z" fill="#36a74c"/>
      <path id="Path_276" data-name="Path 276" d="M594.86,209.716a8.443,8.443,0,0,1,.547-3.932,8.535,8.535,0,0,1,3.571-3.958c2.667-1.746,10.917-7.086,22.376-14.15l50.619,162.259c-18.012-4.758-31.113-8.321-33.63-9.041a6.332,6.332,0,0,1-4.592-4.515C633.063,334.172,596.037,222.963,594.86,209.716Z" fill="#f9b504"/>
      <path id="Path_277" data-name="Path 277" d="M870.9,235.653l38.929,11.492c25.372,82.123,43.841,141.928,44.683,144.537a6.073,6.073,0,0,1,.243,3.022,6.328,6.328,0,0,1-1.776,3.231l-26.052,17.628Q898.912,325.608,870.9,235.653Z" fill="#1999e0"/>
      <path id="Path_278" data-name="Path 278" d="M841.343,472.849a30.075,30.075,0,0,1-9.893,3.025c-1.81.224-3.751.4-5.81.5-1.752.085-3.422.109-5,.086a63.407,63.407,0,0,1-14.709-2.12l-8.1-2.621-4.508-1.879,109.172-74.593c4.177,13.64,7.164,23.523,8.053,25.928,0,0,1,2.672.173,4.274a5.44,5.44,0,0,1-.588.911,5.556,5.556,0,0,1-1.541,1.334Z" fill="#48d169"/>
      <path id="Path_279" data-name="Path 279" d="M888.526,348.918q3.758,12.479,7.514,24.958c.141.312,1.179,2.7.052,4.086a2.149,2.149,0,0,1-.415.391L773.153,461.728a11.5,11.5,0,0,1-2.987.951,13.446,13.446,0,0,1-3.751.023c-2.608-.38-16.962-4.584-36.464-10.849Z" fill="#48d169"/>
      <path id="Path_280" data-name="Path 280" d="M621.354,187.676l88.72-60.229a25.289,25.289,0,0,1,8.574-3.122,29.225,29.225,0,0,1,11.232.449,258.7,258.7,0,0,1,27.3,7.617,2.4,2.4,0,0,1-.906.97L630.884,218.173Q626.12,202.924,621.354,187.676Z" fill="#f99904"/>
      <path id="Path_281" data-name="Path 281" d="M922.187,456.541" fill="#0f5892"/>
    </g>
    <g id="Group_133" data-name="Group 133" transform="translate(366.009 263.032)">
      <g id="Group_131" data-name="Group 131">
        <ellipse id="Ellipse_148-2" data-name="Ellipse 148" cx="19.018" cy="10.892" rx="19.018" ry="10.892" transform="translate(741.991 316.806)" fill="#909091" opacity="0.47"/>
        <path id="Path_282-2" data-name="Path 282" d="M771.876,266.528q2.03,6.238,4.058,12.477l9.864-2.772s-1.186.635,1.38,2.772l-13.052,5.712-3.529-6.205Q771.236,272.52,771.876,266.528Z" fill="#2b91d6"/>
        <path id="Path_283-2" data-name="Path 283" d="M766.652,322.489c2.313,2.681,2.223,3.366,2.13,3.677a2.512,2.512,0,0,1-2.619,1.508c-1.309-.215-1.092-1.66-3.386-3.789-.979-.908-1.849-1.417-1.763-2.165.053-.459.417-.58.785-1.466.383-.921.187-1.267.437-1.423C763.056,318.318,765.863,321.573,766.652,322.489Z" fill="#091e0d"/>
        <path id="Path_284-2" data-name="Path 284" d="M756.408,324.661c-.447,3.319-.326,3.728-.848,4.159a2.534,2.534,0,0,1-3.063-.016c-.926-.875-.4-2.622.256-4.818.164-.544,1.442-4.807,2.623-4.674.768.087,1.141,1.995,1.2,2.286A8.616,8.616,0,0,1,756.408,324.661Z" fill="#091e0d"/>
        <path id="Path_285-2" data-name="Path 285" d="M771.645,268.742l-1.085,9.7,1,1.77Q771.6,274.475,771.645,268.742Z" fill="#00407e"/>
        <path id="Path_286-2" data-name="Path 286" d="M767.838,290.768a16,16,0,0,0-5.278-1.134,16.41,16.41,0,0,0-8.562,2.06c-.354,4.38-.595,9.037-.67,13.944-.085,5.456.045,10.614.32,15.437a1.7,1.7,0,0,0,1.745,1.344,1.685,1.685,0,0,0,1.449-1.205c1.2-9.867,2.394-17.03,2.91-18.376a4.628,4.628,0,0,1,1.349-1.89c.114-.086.718-.543.978-.5.73.115.985,4.523-.323,19.976,1.035,1.544,2.468,2.08,3.2,1.648a1.535,1.535,0,0,0,.638-1.219,147.916,147.916,0,0,0,2.44-15.772c.478-4.786.69-9.277.726-13.416Z" fill="#585666"/>
        <path id="Path_287-2" data-name="Path 287" d="M768.763,291.942a17.28,17.28,0,0,1-3.747,1.24A18.755,18.755,0,0,1,754,291.973a44.576,44.576,0,0,0-2.743-23.7,15.331,15.331,0,0,1,7.635-4.433c6.806-1.566,12.17,2.353,12.986,2.97-.333,4.882-.84,10.025-1.572,15.395Q769.617,287.247,768.763,291.942Z" fill="#2b91d6"/>
        <path id="Path_288-2" data-name="Path 288" d="M769.236,252.665c1.007,1.432.811,3,.419,6.144-.329,2.636-.566,4.528-2.13,5.691a5.259,5.259,0,0,1-3.8.825c-3.092-.449-5.19-3.488-5.764-6.132a7.732,7.732,0,0,1,.838-5.586,6.543,6.543,0,0,1,3.212-2.827C764.482,249.833,767.741,250.539,769.236,252.665Z" fill="#ffd3ce"/>
        <path id="Path_289-2" data-name="Path 289" d="M755.783,270.342,753.4,274.52q.222,1.206.442,2.414L754.9,274.8a9.845,9.845,0,0,0,.887-4.457Z" fill="#00407e"/>
        <path id="Path_290-2" data-name="Path 290" d="M755.2,287.464l-.781,1.038-.175,1.309a2.376,2.376,0,0,1,.943.175,2.314,2.314,0,0,1,.523.3l-.528,1.428a7.959,7.959,0,0,0,3.164.772,7.876,7.876,0,0,0,2.175-.238l.354-1.454Z" fill="#00407e"/>
        <path id="Path_291-2" data-name="Path 291" d="M751.255,267.991a3.781,3.781,0,0,1,4.144,1.059,2.9,2.9,0,0,1,.513,1.6l-2.369,4.746-2.514,6.449,6.411,4.972s-2.26,1.48-1.931,2.836l-9.412-6.658Z" fill="#2b91d6"/>
        <path id="Path_292-2" data-name="Path 292" d="M757.533,287.1l1.207-2.592q.832-.088,1.67-.174,2.057-.211,4.088-.4l-2.634,7.218a8.234,8.234,0,0,1-5.8.07Z" fill="#161616"/>
        <path id="Path_293-2" data-name="Path 293" d="M756.356,287.1a3.577,3.577,0,0,1,1.439-.562l-.233.534a4.246,4.246,0,0,0,.971.213c1.347.131,2.164-.461,2.416-.185.132.145.125.544-.674,1.756a3.14,3.14,0,0,1-.861.733,4.348,4.348,0,0,1-3.859-.146S754.723,288.488,756.356,287.1Z" fill="#ffd3ce"/>
        <path id="Path_294-2" data-name="Path 294" d="M787.226,273.51c-.253-.024-.49.291-1.075,1.4a8.3,8.3,0,0,0-.726,1.565,3.3,3.3,0,0,0-.064,1.51,1.811,1.811,0,0,0,.479,1.107c1.02.7,4.436-1.744,4.785-3.876a2.126,2.126,0,0,0-.823-2.283.5.5,0,0,0-.38-.186c-.6.04-.73,1.753-1.623,2.066-.071.025-.2.067-.277.007-.235-.171.208-.938-.1-1.225A.354.354,0,0,0,787.226,273.51Z" fill="#ffd3ce"/>
        <path id="Path_295" data-name="Path 295" d="M766.658,249.6a6.919,6.919,0,0,0-2.345-.61,7.67,7.67,0,0,0-5.289,1.775,12.553,12.553,0,0,0-.936,1.255,8.167,8.167,0,0,0-1.106,2.551,7.454,7.454,0,0,0,.4,4.544,7.6,7.6,0,0,0,.477.954c.277,1.127.449,1.407.559,1.4.251-.024-.042-1.542.9-2.491.478-.483.723-.282,1.341-.763,1.247-.971,1.407-2.686,1.638-2.635.168.037-.023.913.28,1.048s.743-.548,1.419-1.071a5.036,5.036,0,0,1,2.56-.978,6.463,6.463,0,0,1,2.276,1.611,6.332,6.332,0,0,1,.881,1.25l-.071,1.546s.848-.636,1.244-3.127c0,0,.768.466,1.163.14-.353-.524-.893-1.349-1.513-2.4a14.894,14.894,0,0,0-1.373-2.188A6.815,6.815,0,0,0,766.658,249.6Z" fill="#001b0f"/>
        <path id="Path_296" data-name="Path 296" d="M765.733,261.928a3.356,3.356,0,0,0-2.56.768,3.21,3.21,0,0,0-.793,2.253,2.591,2.591,0,0,0,.793.936,2.814,2.814,0,0,0,2.172.41,3.358,3.358,0,0,0,1.389-.689,1.965,1.965,0,0,0,.465-.559,1.867,1.867,0,0,0,.172-.44,2.266,2.266,0,0,0-.032-1.934A3.173,3.173,0,0,0,765.733,261.928Z" fill="#0d2d1e"/>
        <path id="Path_297" data-name="Path 297" d="M766.9,263.3c.075.555-.723,1.166-1.467,1.234-.849.077-1.787-.54-1.769-1.094.02-.578,1.081-1.086,1.955-.978C766.1,262.524,766.83,262.81,766.9,263.3Z" fill="#ffd3ce"/>
      </g>
      <g id="Group_132" data-name="Group 132">
        <ellipse id="Ellipse_149" data-name="Ellipse 149" cx="19.018" cy="10.892" rx="19.018" ry="10.892" transform="translate(800.573 360.15)" fill="#909091" opacity="0.47"/>
        <path id="Path_298" data-name="Path 298" d="M819.317,372.587a3.9,3.9,0,0,1,.273,1.292,1.719,1.719,0,0,1-.317,1.031,1.883,1.883,0,0,1-1.149.668,3.246,3.246,0,0,1-2.467-.489c-.681-.479-.548-.813-1.212-1.525-1.079-1.158-1.872-.749-2.791-1.687a3.552,3.552,0,0,1-.838-3.584,2.881,2.881,0,0,1,2.077-1.833,2.618,2.618,0,0,1,1.571.262c1.469.7,1.1,1.909,2.729,3.572C818.137,371.257,818.865,371.464,819.317,372.587Z" fill="#4a3000"/>
        <path id="Path_299" data-name="Path 299" d="M828.69,372.971a2.8,2.8,0,0,1-1.908,1.3,2.646,2.646,0,0,1-2.4-1.652c-.369-.87.106-1.184-.024-2.84-.123-1.578-.6-1.876-.325-2.583a2.729,2.729,0,0,1,2.746-1.443c1.813.231,2.834,2.613,2.863,4.329A4.706,4.706,0,0,1,828.69,372.971Z" fill="#4a3000"/>
        <path id="Path_300" data-name="Path 300" d="M832.407,336.45l-15.455.7A42.3,42.3,0,0,0,815.2,372.22c1.095,1.554,2.617,2.071,3.421,1.589a1.652,1.652,0,0,0,.7-1.222,27.025,27.025,0,0,1-1.311-9.788,31.689,31.689,0,0,1,1.7-8.1s1.527-5.193,4.113-7.067c.167-.121.674-.5.925-.316a.552.552,0,0,1,.175.4c.049.621.154,4.493.267,9.755l.152,13.59a1.128,1.128,0,0,0,.209.884c.3.357.806.337,1.7.3a1.66,1.66,0,0,0,.952-.217,1.347,1.347,0,0,0,.491-.668,78.434,78.434,0,0,1,2.235-14.36c.986-3.865,1.267-7.9,2.374-11.729a11.888,11.888,0,0,0,.186-5.983A11.5,11.5,0,0,0,832.407,336.45Z" fill="#0e9da0"/>
        <path id="Path_301" data-name="Path 301" d="M840.374,309.013c2.413-.131,4.331,6.027,4.585,6.842a22.085,22.085,0,0,1,.07,12.289,18.074,18.074,0,0,0-11.9,4.5c.334.464,1.812,2.555,1.327,3.072-.366.389-1.858-.1-2.549-1.135a3.253,3.253,0,0,1,.21-3.543,15.014,15.014,0,0,1,8.03-7.227,9.226,9.226,0,0,0-.559-3.84c-.8-2.1-1.916-2.463-2.378-3.95C836.331,313.214,838.427,309.117,840.374,309.013Z" fill="#ffd3ce"/>
        <path id="Path_302" data-name="Path 302" d="M840.165,308.431a26.583,26.583,0,0,0-10-.278,27.049,27.049,0,0,0-13.216,6.246,50.967,50.967,0,0,0-.062,23.067,20.252,20.252,0,0,0,5.761,1.85c2.291.368,4.9.788,7.436-.593a8.158,8.158,0,0,0,2.326-1.919,19.149,19.149,0,0,1,.765-7.17,19.851,19.851,0,0,1,1.843-4.446,26.455,26.455,0,0,0,2.24-4.655c.449-1.168.746-2.15.925-2.792a1.386,1.386,0,0,1,.105.1,2.044,2.044,0,0,1,.245.332,11.075,11.075,0,0,1,.523,1.047,7.9,7.9,0,0,0,4.062-1.553,7.734,7.734,0,0,0,1.873-2.057,9.227,9.227,0,0,0-.523-2.156A10.257,10.257,0,0,0,840.165,308.431Z" fill="#001b0f"/>
        <ellipse id="Ellipse_150" data-name="Ellipse 150" cx="7.72" cy="9.561" rx="7.72" ry="9.561" transform="translate(821.89 290.365)" fill="#ffd3ce"/>
        <path id="Path_303" data-name="Path 303" d="M809.182,321.775l-1.155,3.9a1.542,1.542,0,0,1-1.11.605,1.5,1.5,0,0,1-1.345-.721l-.5-3.014q-.066-.5-.134-.995a.8.8,0,0,1,.037-.257c.214-.665,1.334-.909,2.075-.9.86.014,2.03.385,2.153,1.052A.723.723,0,0,1,809.182,321.775Z" fill="#aaa"/>
        <ellipse id="Ellipse_151" data-name="Ellipse 151" cx="1.635" cy="0.711" rx="1.635" ry="0.711" transform="translate(805.44 321.04)" fill="#593408"/>
        <path id="Path_304" data-name="Path 304" d="M816.856,314.859s5.411-.889,4.922,4.976a33.406,33.406,0,0,1-4.922,14.593,11.87,11.87,0,0,1-3.2-.445c-5.022-1.421-7.586-5.8-8.329-7.189a7.555,7.555,0,0,1-.594-2.711c-.014-.613.05-1.342.21-1.362.126-.015.144.429.524.838a2.647,2.647,0,0,0,1.571.675c.842.15,1.323,0,1.361.14s-.5.488-1.047.605a2.215,2.215,0,0,1-.582.046,7.445,7.445,0,0,0,4.1,2.912,7.084,7.084,0,0,0,2.956.137,19.989,19.989,0,0,0,1.141-6.982,9,9,0,0,1,.7-4.422A7.558,7.558,0,0,1,816.856,314.859Z" fill="#ffd3ce"/>
        <path id="Path_305" data-name="Path 305" d="M807.075,321.751s2.746-.4,1.733-1.933c-.53-.8-.393-1.052-.351-1.28s.231-.552.892-.856a2.221,2.221,0,0,0-1.251.2,1.864,1.864,0,0,0-1.14,1.681c.063.361.31.4.423.811A1.789,1.789,0,0,1,807.075,321.751Z" fill="#e2e2e2"/>
        <path id="Path_306" data-name="Path 306" d="M806.8,321.519a1.276,1.276,0,0,0,.3-.483.515.515,0,0,0,.034-.253c-.023-.138-.109-.195-.206-.316a1.261,1.261,0,0,1-.259-.683.946.946,0,0,1,.084-.4.848.848,0,0,0-.215.408,1.146,1.146,0,0,0,.185.783c.118.183.236.255.244.43a.477.477,0,0,1-.07.263Z" fill="#e2e2e2"/>
        <path id="Path_307" data-name="Path 307" d="M821.848,316.484c1.1,1.875.595,4.07.233,5.632a11.874,11.874,0,0,1-.7,2.1,6.361,6.361,0,0,1-4.119-.023,6.251,6.251,0,0,1-2.584-1.769,19.5,19.5,0,0,1,.186-3.771,7.156,7.156,0,0,1,.768-2.676,3.72,3.72,0,0,1,1.956-1.862C819.154,313.658,821.013,315.066,821.848,316.484Z" fill="#001b0f"/>
        <path id="Path_308" data-name="Path 308" d="M823.454,299.926a7.439,7.439,0,0,0,4.818,8.179,6.932,6.932,0,0,0,5.914.429,6.2,6.2,0,0,0,2.534-2.105,11.849,11.849,0,0,0,2.444-8.553,11.683,11.683,0,0,0-3.386-6.843c-3.7-2.322-6.394-2.443-8.17-2.13-4.148.731-8.483,4.748-8.483,4.748h0s-.357,3.181,2.684,3.511c1.428.155,1.607.591,1.793.888C823.722,298.243,823.973,298.786,823.454,299.926Z" fill="#593408"/>
      </g>
    </g>
    <g id="Group_135" data-name="Group 135" transform="translate(573.686 47.908)">
      <path id="Path_325" data-name="Path 325" d="M8.354,0a113.863,113.863,0,0,1,60.77,21.41L61.792,53.7A123.36,123.36,0,0,0,34.725,39.634,123.481,123.481,0,0,0,0,32.209Z" transform="translate(765.856 253.168) rotate(-3)" fill="#77777c"/>
      <path id="Path_326" data-name="Path 326" d="M7.091,0A119.556,119.556,0,0,1,71.086,20.083l-7.4,32.695a117.781,117.781,0,0,0-28.7-14.2A117.932,117.932,0,0,0,0,32.51Z" transform="translate(762.93 251.949) rotate(-3)" fill="#fff"/>
      <ellipse id="Ellipse_156" data-name="Ellipse 156" cx="6.758" cy="18.946" rx="6.758" ry="18.946" transform="translate(763.889 353.74) rotate(-87.76)" fill="#909091" opacity="0.47"/>
      <ellipse id="Ellipse_157" data-name="Ellipse 157" cx="5.622" cy="6.866" rx="5.622" ry="6.866" transform="translate(778.869 268.271)" fill="#ffd3ce"/>
      <path id="Path_327" data-name="Path 327" d="M772.759,310.3l1.469,7.656-1.469,5.325q.881,6.417,1.765,12.834l1.886.278,1.48-18.548v-9.1Z" transform="translate(1.19 8.391)" fill="#ffd3ce"/>
      <path id="Path_328" data-name="Path 328" d="M779.54,309.141v8.322l-.888,5.992q.675,6.075,1.35,12.15l2.127.092q.481-6.4.962-12.8l1.665-13.759Z" transform="translate(1.981 8.443)" fill="#ffd3ce"/>
      <path id="Path_336" data-name="Path 336" d="M0,0A60.415,60.415,0,0,1,10.421,1.405,60.355,60.355,0,0,1,21.442,5.03" transform="translate(776.632 261.638) rotate(-3)" fill="none" stroke="#3fa9f5" stroke-miterlimit="10" stroke-width="1"/>
      <path id="Path_337" data-name="Path 337" d="M0,0A60.279,60.279,0,0,1,10.42,1.405,60.366,60.366,0,0,1,21.442,5.03" transform="translate(775.468 267.699) rotate(-3)" fill="none" stroke="#3fa9f5" stroke-miterlimit="10" stroke-width="1"/>
      <path id="Path_338" data-name="Path 338" d="M0,7.027,5.992,1.405l.3,4.586,7.767-4.586-.37,2.145,1.849-.888-.37,3.107L23.6,1.775,23.227,5l5.548-5" transform="translate(802.077 275.267) rotate(-3)" fill="none" stroke="#3fa9f5" stroke-miterlimit="10" stroke-width="1"/>
      <path id="Path_329" data-name="Path 329" d="M773.867,279.084l-3.318,14.138c1.057.074,2.181.116,3.365.111A45.8,45.8,0,0,0,779.24,293l.5-1.849a9.869,9.869,0,0,1-4.6.018,9.162,9.162,0,0,1-1.268-.407,20.65,20.65,0,0,1,2.822-7.434Q775.278,281.207,773.867,279.084Z" transform="translate(0.894 4.41)" fill="#ffd3ce"/>
      <path id="Path_330" data-name="Path 330" d="M785.769,284.8l10.486,3.306a16.8,16.8,0,0,0,6.24-4.721,16.159,16.159,0,0,0,1.8-2.746,3.466,3.466,0,0,0,1.193-.971,2.759,2.759,0,0,0,.61-1.249c.177-1.076-.656-1.325-.445-2.219a9.22,9.22,0,0,0,.666-1.8c.019-.129.035-.271-.027-.305-.277-.151-1.515,2.121-2.247,1.886-.228-.073-.253-.338-.389-.332-.2.008-.459.628-.693,3.245a10.771,10.771,0,0,1-4.05,4.05,10.648,10.648,0,0,1-4.1,1.3c-.549-.22-1.117-.472-1.7-.761a23.445,23.445,0,0,1-5.072-3.428Z" transform="translate(2.936 3.739)" fill="#ffd3ce"/>
      <path id="Path_331" data-name="Path 331" d="M789.86,279.014l-16.182.079q-.863,2.64-1.727,5.28a3.549,3.549,0,0,0,2,1.739,3.346,3.346,0,0,0,1.554.111l.315-.842a20.455,20.455,0,0,1,.535,2.339,21.194,21.194,0,0,1-.331,8.443l9.29,1.439a19.127,19.127,0,0,1,3.338-7.275,3.862,3.862,0,0,0,1.109-2.663,3.369,3.369,0,0,0-1.109-2.08c.671.237,1.412.466,2.219.666.6.149,1.172.265,1.713.358a3.737,3.737,0,0,0,1.645-1.329,3.814,3.814,0,0,0,.61-2.608Z" transform="translate(1.082 4.4)" fill="#2b164c"/>
      <path id="Path_332" data-name="Path 332" d="M776.629,293.1c-5.187,3.392-5.923,6.457-6.03,7.92-.125,1.7.381,2.763,1.11,6.134a57.033,57.033,0,0,1,1.147,7.97,24.806,24.806,0,0,0,13.37-.5l-.73-18.911Z" transform="translate(0.898 6.29)" fill="#2b164c"/>
      <path id="Path_333" data-name="Path 333" d="M789.3,270.564s-.277,1.316-2.606,2.1c-1.413,2.574-1.448,4.452-1.11,5.778.5,1.964,1.792,2.6,2.09,4.448.316,1.97-.733,3.834-1.868,5.256a6.191,6.191,0,0,1-4.216,2.611,6.275,6.275,0,0,1-5.1-1.831A9.178,9.178,0,0,1,774.1,282.6a9.066,9.066,0,0,1,2.053-5.436c.2-.484.382-1,.555-1.554a20.572,20.572,0,0,0,.833-4.1c.171-3.441,2.1-6.174,4.537-6.74a6.444,6.444,0,0,1,4.117.692,5.447,5.447,0,0,1,2.663,2.5A5.015,5.015,0,0,1,789.3,270.564Z" transform="translate(1.37 2.473)" fill="#706b6b"/>
      <path id="Path_334" data-name="Path 334" d="M776.7,332.887a2.018,2.018,0,0,0-2.693-.194,1.839,1.839,0,0,0-.324.633c-.174.617.062,1.114-.234,1.359-.092.076-.158.065-.252.176a.763.763,0,0,0-.15.532,1.287,1.287,0,0,0,.825,1.018,1.5,1.5,0,0,0,1.158-.048,1.12,1.12,0,0,1-.041.374c-.063.218-.154.276-.125.347.064.16.649.208.845-.056.158-.21-.057-.451.1-.637s.5-.018.888-.2a1.119,1.119,0,0,0,.485-.459c-.012-.312-.039-.645-.084-1A11.316,11.316,0,0,0,776.7,332.887Z" transform="translate(1.229 11.547)" fill="#7d05c4"/>
      <path id="Path_335" data-name="Path 335" d="M783.071,333.377a2.074,2.074,0,0,0-1.656-1.5,2.133,2.133,0,0,0-1.724.577,2.093,2.093,0,0,0-.447.949,3.531,3.531,0,0,0,.243,1.675c.17.535.326.784.252,1.188a1.417,1.417,0,0,1-.252.572.546.546,0,0,0,.42.134.524.524,0,0,0,.319-.168c.023-1.336.11-1.827.225-1.837s.272.416.515,1.6a8.443,8.443,0,0,0,5.36-.522c1.073-.727,1.237-1.051,1.176-1.209s-.315-.149-1.214-.214a5.8,5.8,0,0,1-2.3-.374A2.5,2.5,0,0,1,783.071,333.377Z" transform="translate(2.057 11.492)" fill="#7d05c4"/>
    </g>
  </g>
</svg>
